<svg height="512pt" viewBox="-48 0 512 512" width="512pt" xmlns="http://www.w3.org/2000/svg"><path d="m159.460938 50.03125h93.320312v83.328125h-93.320312zm0 0" fill="#e7f9f9"/><path d="m206.121094 50.03125h46.660156v83.328125h-46.660156zm0 0" fill="#b1e2ff"/><path d="m405.574219 127.597656-20.6875-20.671875c-12.542969-12.535156-32.949219-12.535156-45.488281 0l-43.449219 43.417969 66.191406 66.148438 43.433594-43.40625c6.078125-6.074219 9.425781-14.152344 9.425781-22.742188 0-8.59375-3.347656-16.667969-9.425781-22.746094zm0 0" fill="#0099fa"/><path d="m412.238281 306.269531c0 113.441407-92.46875 205.730469-206.117187 205.730469-113.652344 0-206.121094-92.289062-206.121094-205.730469 0-113.441406 92.46875-205.738281 206.121094-205.738281 113.648437 0 206.117187 92.296875 206.117187 205.738281zm0 0" fill="#0052c2"/><path d="m412.238281 306.269531c0 113.441407-92.46875 205.730469-206.117187 205.730469v-411.46875c113.648437 0 206.117187 92.296875 206.117187 205.738281zm0 0" fill="#00204c"/><path d="m353.808594 306.269531c0 81.28125-66.25 147.421875-147.6875 147.421875-81.441406 0-147.691406-66.140625-147.691406-147.421875 0-81.289062 66.25-147.417969 147.691406-147.417969 81.4375 0 147.6875 66.128907 147.6875 147.417969zm0 0" fill="#fff"/><path d="m353.808594 306.269531c0 81.28125-66.25 147.421875-147.6875 147.421875v-294.839844c81.4375 0 147.6875 66.128907 147.6875 147.417969zm0 0" fill="#e7f9f9"/><path d="m263.921875 283.488281c-3.210937 13.453125-11.730469 49.171875-24.652344 62.0625-9.21875 9.210938-21.03125 13.808594-33.148437 13.808594-12.121094 0-24.550782-4.597656-33.769532-13.808594-8.953124-8.929687-13.882812-20.800781-13.882812-33.429687 0-12.632813 4.929688-24.511719 13.882812-33.441406 2.449219-2.449219 8.738282-8.730469 33.769532-16.800782 7.589844-2.449218 16.917968-5.070312 28.390625-7.789062 8.316406-1.96875 16.898437.460937 22.9375 6.5 6.03125 6.039062 8.449219 14.601562 6.472656 22.898437zm0 0" fill="#ff573a"/><path d="m281.738281 23.691406v32.660156c0 13.058594-10.617187 23.679688-23.679687 23.679688h-103.867188c-13.070312 0-23.691406-10.621094-23.691406-23.679688v-32.660156c0-13.0625 10.621094-23.691406 23.691406-23.691406h103.867188c13.0625 0 23.679687 10.628906 23.679687 23.691406zm0 0" fill="#29dcff"/><path d="m258.058594 80.03125h-51.9375v-80.03125h51.9375c13.0625 0 23.679687 10.628906 23.679687 23.691406v32.660156c0 13.058594-10.617187 23.679688-23.679687 23.679688zm0 0" fill="#0099fa"/><path d="m263.921875 283.488281c-3.210937 13.453125-11.730469 49.171875-24.652344 62.0625-9.21875 9.210938-21.03125 13.808594-33.148437 13.808594v-97.480469c7.589844-2.449218 16.917968-5.070312 28.390625-7.789062 8.316406-1.96875 16.898437.460937 22.9375 6.5 6.03125 6.039062 8.449219 14.601562 6.472656 22.898437zm0 0" fill="#f30238"/></svg>